{
  "accessors": [
    {
      "bufferView": 2,
      "componentType": 5126,
      "count": 2257,
      "max": [
        6.531411170959473,
        3.0245094299316406,
        17.368717193603516
      ],
      "min": [
        -4.237717151641846,
        -8.665956497192383,
        -1.55365788936615
      ],
      "type": "VEC3"
    },
    {
      "bufferView": 2,
      "byteOffset": 27084,
      "componentType": 5126,
      "count": 2257,
      "max": [
        0.99925297498703,
        0.9999269247055054,
        0.9996437430381775
      ],
      "min": [
        -0.999994695186615,
        -0.9985872507095337,
        -0.9988532662391663
      ],
      "type": "VEC3"
    },
    {
      "bufferView": 3,
      "componentType": 5126,
      "count": 2257,
      "max": [
        0.9996399879455566,
        0.9997161030769348,
        0.9994186758995056,
        1.0
      ],
      "min": [
        -0.99591064453125,
        -0.9999565482139587,
        -0.994371235370636,
        -1.0
      ],
      "type": "VEC4"
    },
    {
      "bufferView": 1,
      "componentType": 5126,
      "count": 2257,
      "max": [
        0.9900000095367432,
        0.9900000095367432
      ],
      "min": [
        0.009999999776482582,
        0.013967633247375488
      ],
      "type": "VEC2"
    },
    {
      "bufferView": 1,
      "byteOffset": 18056,
      "componentType": 5126,
      "count": 2257,
      "max": [
        0.9900000095367432,
        0.9900000095367432
      ],
      "min": [
        0.009999999776482582,
        0.013967633247375488
      ],
      "type": "VEC2"
    },
    {
      "bufferView": 1,
      "byteOffset": 36112,
      "componentType": 5126,
      "count": 2257,
      "max": [
        0.9900000095367432,
        0.9900000095367432
      ],
      "min": [
        0.009999999776482582,
        0.013967633247375488
      ],
      "type": "VEC2"
    },
    {
      "bufferView": 0,
      "componentType": 5125,
      "count": 8844,
      "type": "SCALAR"
    },
    {
      "bufferView": 2,
      "byteOffset": 54168,
      "componentType": 5126,
      "count": 276,
      "max": [
        11.12876033782959,
        7.205026626586914,
        10.69291877746582
      ],
      "min": [
        -7.001167297363281,
        -9.931964874267578,
        -5.8460774421691895
      ],
      "type": "VEC3"
    },
    {
      "bufferView": 2,
      "byteOffset": 57480,
      "componentType": 5126,
      "count": 276,
      "max": [
        0.9944688081741333,
        0.9648057818412781,
        0.9988077282905579
      ],
      "min": [
        -0.9733110070228577,
        -0.9993424415588379,
        -0.6471173763275146
      ],
      "type": "VEC3"
    },
    {
      "bufferView": 3,
      "byteOffset": 36112,
      "componentType": 5126,
      "count": 276,
      "max": [
        0.9993036389350891,
        0.9729270935058594,
        0.9632678031921387,
        1.0
      ],
      "min": [
        -0.9842840433120728,
        -0.9982016682624817,
        -0.9806699752807617,
        1.0
      ],
      "type": "VEC4"
    },
    {
      "bufferView": 1,
      "byteOffset": 54168,
      "componentType": 5126,
      "count": 276,
      "max": [
        1.0,
        1.0
      ],
      "min": [
        0.0,
        0.0
      ],
      "type": "VEC2"
    },
    {
      "bufferView": 1,
      "byteOffset": 56376,
      "componentType": 5126,
      "count": 276,
      "max": [
        1.0,
        1.0
      ],
      "min": [
        0.0,
        0.0
      ],
      "type": "VEC2"
    },
    {
      "bufferView": 1,
      "byteOffset": 58584,
      "componentType": 5126,
      "count": 276,
      "max": [
        1.0,
        1.0
      ],
      "min": [
        0.0,
        0.0
      ],
      "type": "VEC2"
    },
    {
      "bufferView": 0,
      "byteOffset": 35376,
      "componentType": 5125,
      "count": 759,
      "type": "SCALAR"
    }
  ],
  "asset": {
    "extras": {
      "author": "DJMaesen (https://sketchfab.com/bumstrum)",
      "license": "CC-BY-4.0 (http://creativecommons.org/licenses/by/4.0/)",
      "source": "https://sketchfab.com/3d-models/tree-beab28462a14499ebaf3ea88926da55e",
      "title": "Tree"
    },
    "generator": "Sketchfab-13.72.0",
    "version": "2.0"
  },
  "bufferViews": [
    {
      "buffer": 0,
      "byteLength": 38412,
      "name": "floatBufferViews",
      "target": 34963
    },
    {
      "buffer": 0,
      "byteLength": 60792,
      "byteOffset": 38412,
      "byteStride": 8,
      "name": "floatBufferViews",
      "target": 34962
    },
    {
      "buffer": 0,
      "byteLength": 60792,
      "byteOffset": 99204,
      "byteStride": 12,
      "name": "floatBufferViews",
      "target": 34962
    },
    {
      "buffer": 0,
      "byteLength": 40528,
      "byteOffset": 159996,
      "byteStride": 16,
      "name": "floatBufferViews",
      "target": 34962
    }
  ],
  "buffers": [
    {
      "byteLength": 200524,
      "uri": "scene.bin"
    }
  ],
  "images": [
    {
      "uri": "textures/tree3_baseColor.png"
    },
    {
      "uri": "textures/tree3_metallicRoughness.png"
    },
    {
      "uri": "textures/tree3_normal.png"
    },
    {
      "uri": "textures/deadbranches_baseColor.png"
    },
    {
      "uri": "textures/deadbranches_metallicRoughness.png"
    },
    {
      "uri": "textures/deadbranches_normal.png"
    }
  ],
  "materials": [
    {
      "name": "tree3",
      "normalTexture": {
        "index": 2
      },
      "pbrMetallicRoughness": {
        "baseColorTexture": {
          "index": 0
        },
        "metallicFactor": 0.0,
        "metallicRoughnessTexture": {
          "index": 1
        }
      }
    },
    {
      "alphaMode": "BLEND",
      "doubleSided": true,
      "name": "deadbranches",
      "normalTexture": {
        "index": 5
      },
      "pbrMetallicRoughness": {
        "baseColorTexture": {
          "index": 3
        },
        "metallicFactor": 0.0,
        "metallicRoughnessTexture": {
          "index": 4
        }
      }
    }
  ],
  "meshes": [
    {
      "name": "tree3_tree3_0",
      "primitives": [
        {
          "attributes": {
            "NORMAL": 1,
            "POSITION": 0,
            "TANGENT": 2,
            "TEXCOORD_0": 3,
            "TEXCOORD_1": 4,
            "TEXCOORD_2": 5
          },
          "indices": 6,
          "material": 0,
          "mode": 4
        }
      ]
    },
    {
      "name": "branches_deadbranches_0",
      "primitives": [
        {
          "attributes": {
            "NORMAL": 8,
            "POSITION": 7,
            "TANGENT": 9,
            "TEXCOORD_0": 10,
            "TEXCOORD_1": 11,
            "TEXCOORD_2": 12
          },
          "indices": 13,
          "material": 1,
          "mode": 4
        }
      ]
    }
  ],
  "nodes": [
    {
      "children": [
        1
      ],
      "matrix": [
        1.0,
        0.0,
        0.0,
        0.0,
        0.0,
        2.220446049250313e-16,
        -1.0,
        0.0,
        0.0,
        1.0,
        2.220446049250313e-16,
        0.0,
        0.0,
        0.0,
        0.0,
        1.0
      ],
      "name": "Sketchfab_model"
    },
    {
      "children": [
        2
      ],
      "matrix": [
        0.009999999776482582,
        0.0,
        0.0,
        0.0,
        0.0,
        0.0,
        0.009999999776482582,
        0.0,
        0.0,
        -0.009999999776482582,
        0.0,
        0.0,
        0.0,
        0.0,
        0.0,
        1.0
      ],
      "name": "8c32c7807ff94f28a38ce7e1d2de05ad.fbx"
    },
    {
      "children": [
        3
      ],
      "name": "RootNode"
    },
    {
      "children": [
        4,
        5
      ],
      "matrix": [
        100.0,
        0.0,
        0.0,
        0.0,
        0.0,
        -4.371139006309477e-06,
        -99.9999999999999,
        0.0,
        0.0,
        99.9999999999999,
        -4.371139006309477e-06,
        0.0,
        0.0,
        0.0,
        0.0,
        1.0
      ],
      "name": "tree3"
    },
    {
      "mesh": 0,
      "name": "tree3_tree3_0"
    },
    {
      "children": [
        6
      ],
      "matrix": [
        -0.03994118168907557,
        -0.9368310863937725,
        -0.34749419789622965,
        0.0,
        -0.8886425897769346,
        -0.12570457243791328,
        0.44103581361773575,
        0.0,
        -0.45685769721210673,
        0.3264136549698293,
        -0.8274872629516954,
        0.0,
        1.0540292263031006,
        -2.2287425994873047,
        14.922198295593262,
        1.0
      ],
      "name": "branches"
    },
    {
      "mesh": 1,
      "name": "branches_deadbranches_0"
    }
  ],
  "samplers": [
    {
      "magFilter": 9729,
      "minFilter": 9987,
      "wrapS": 10497,
      "wrapT": 10497
    }
  ],
  "scene": 0,
  "scenes": [
    {
      "name": "Sketchfab_Scene",
      "nodes": [
        0
      ]
    }
  ],
  "textures": [
    {
      "sampler": 0,
      "source": 0
    },
    {
      "sampler": 0,
      "source": 1
    },
    {
      "sampler": 0,
      "source": 2
    },
    {
      "sampler": 0,
      "source": 3
    },
    {
      "sampler": 0,
      "source": 4
    },
    {
      "sampler": 0,
      "source": 5
    }
  ]
}
